<svg xmlns="http://www.w3.org/2000/svg" width="214" height="69" viewBox="0 0 214 69" fill="none"><path d="M84.5171 16.1953V18.8755H87.7898V19.9744H84.5171V23.4686H83.1499V15.0948H88.3716V16.1938H84.5171V16.1953Z" fill="#3C3C3B"></path><path d="M96.0532 23.4706H95.001C94.8804 23.4706 94.7839 23.4405 94.71 23.3802C94.6362 23.3199 94.5804 23.246 94.5412 23.1571L93.8433 21.3075H90.239L89.5411 23.1571C89.5094 23.234 89.4552 23.3063 89.3783 23.3727C89.3014 23.439 89.2034 23.4721 89.0873 23.4721H88.0352L91.356 15.0984H92.7338L96.0547 23.4721L96.0532 23.4706ZM93.477 20.3307L92.3253 17.2721C92.2318 17.0354 92.1369 16.7355 92.0404 16.3707C91.9982 16.5531 91.9515 16.7204 91.9002 16.8741C91.8489 17.0279 91.8037 17.1621 91.76 17.2781L90.6083 20.3307H93.4755H93.477Z" fill="#3C3C3B"></path><path d="M102.611 21.6035C102.685 21.6035 102.748 21.6321 102.802 21.6909L103.344 22.2788C103.003 22.6903 102.584 23.0069 102.088 23.23C101.592 23.4531 100.998 23.5646 100.309 23.5646C99.6971 23.5646 99.1439 23.4591 98.6494 23.2481C98.155 23.037 97.7329 22.7431 97.3847 22.3647C97.0365 21.9864 96.7682 21.5356 96.5797 21.0125C96.3913 20.4895 96.2979 19.9136 96.2979 19.285C96.2979 18.6564 96.3973 18.0806 96.5978 17.556C96.7968 17.0299 97.0787 16.5792 97.4405 16.2008C97.8023 15.8225 98.2379 15.53 98.7429 15.3205C99.2494 15.111 99.8056 15.007 100.415 15.007C101.024 15.007 101.553 15.1049 102.017 15.3009C102.48 15.4969 102.882 15.7577 103.223 16.0833L102.775 16.7164C102.744 16.7586 102.707 16.7963 102.665 16.8264C102.623 16.8581 102.564 16.8732 102.49 16.8732C102.413 16.8732 102.325 16.837 102.225 16.7661C102.126 16.6938 102 16.6154 101.847 16.5279C101.693 16.4405 101.501 16.3606 101.271 16.2898C101.04 16.2189 100.752 16.1828 100.407 16.1828C100.008 16.1828 99.6413 16.2521 99.3082 16.3923C98.975 16.5325 98.6886 16.736 98.4474 17.0028C98.2063 17.2711 98.0193 17.5952 97.8867 17.9796C97.7525 18.364 97.6862 18.7996 97.6862 19.288C97.6862 19.7765 97.7555 20.2196 97.8957 20.6055C98.0359 20.9914 98.2274 21.3171 98.4716 21.5824C98.7158 21.8477 99.0022 22.0512 99.3323 22.1898C99.6624 22.33 100.017 22.3994 100.397 22.3994C100.629 22.3994 100.838 22.3873 101.022 22.3617C101.206 22.3361 101.376 22.2954 101.532 22.2396C101.687 22.1838 101.833 22.113 101.97 22.0271C102.107 21.9426 102.245 21.8371 102.38 21.7135C102.457 21.6442 102.536 21.608 102.612 21.608L102.611 21.6035Z" fill="#3C3C3B"></path><path d="M107.827 22.3715C108.148 22.3715 108.436 22.3173 108.69 22.2087C108.944 22.1002 109.159 21.9494 109.336 21.755C109.512 21.562 109.646 21.3284 109.74 21.054C109.833 20.7812 109.88 20.4782 109.88 20.1435V15.0967H111.235V20.1435C111.235 20.6365 111.157 21.0917 111 21.5108C110.843 21.9298 110.617 22.2916 110.323 22.5946C110.029 22.8991 109.67 23.1373 109.25 23.3107C108.829 23.4825 108.356 23.5699 107.828 23.5699C107.301 23.5699 106.827 23.484 106.407 23.3107C105.986 23.1373 105.629 22.8991 105.333 22.5946C105.039 22.2901 104.813 21.9283 104.657 21.5108C104.5 21.0917 104.421 20.6365 104.421 20.1435V15.0967H105.783V20.1375C105.783 20.4707 105.829 20.7737 105.923 21.048C106.016 21.3208 106.15 21.556 106.324 21.752C106.499 21.9479 106.713 22.1002 106.966 22.2087C107.219 22.3173 107.507 22.3715 107.83 22.3715H107.827Z" fill="#3C3C3B"></path><path d="M117.962 22.3308V23.4704H113.125V15.0967H114.486V22.3293H117.964L117.962 22.3308Z" fill="#3C3C3B"></path><path d="M123.828 16.2303H121.217V23.4689H119.862V16.2303H117.245V15.0967H123.828V16.2303Z" fill="#3C3C3B"></path><path d="M131.178 23.4706H130.125C130.005 23.4706 129.908 23.4405 129.835 23.3802C129.761 23.3199 129.705 23.246 129.666 23.1571L128.968 21.3075H125.364L124.666 23.1571C124.634 23.234 124.58 23.3063 124.503 23.3727C124.426 23.439 124.328 23.4721 124.212 23.4721H123.16L126.481 15.0984H127.858L131.179 23.4721L131.178 23.4706ZM128.601 20.3307L127.45 17.2721C127.356 17.0354 127.261 16.7355 127.165 16.3707C127.123 16.5531 127.076 16.7204 127.025 16.8741C126.975 17.0279 126.928 17.1621 126.885 17.2781L125.733 20.3307H128.6H128.601Z" fill="#3C3C3B"></path><path d="M139.507 19.2828C139.507 19.9024 139.406 20.4707 139.204 20.9832C139.002 21.4972 138.718 21.9374 138.352 22.3067C137.986 22.6745 137.545 22.9609 137.031 23.1644C136.517 23.3679 135.947 23.4704 135.319 23.4704H132.155V15.0967H135.319C135.947 15.0967 136.517 15.1977 137.031 15.4027C137.545 15.6062 137.986 15.8926 138.352 16.2604C138.718 16.6282 139.002 17.0699 139.204 17.5839C139.406 18.098 139.507 18.6648 139.507 19.2843V19.2828ZM138.117 19.2828C138.117 18.8019 138.052 18.3693 137.922 17.9864C137.793 17.602 137.607 17.2794 137.364 17.0156C137.122 16.7518 136.828 16.5498 136.484 16.4081C136.139 16.2664 135.752 16.1956 135.322 16.1956H133.525V22.37H135.322C135.752 22.37 136.139 22.3007 136.484 22.1605C136.829 22.0203 137.123 21.8183 137.364 21.553C137.607 21.2877 137.793 20.9636 137.922 20.5822C138.052 20.2008 138.117 19.7667 138.117 19.2828Z" fill="#3C3C3B"></path><path d="M151.246 19.2828C151.246 19.9024 151.145 20.4707 150.943 20.9832C150.741 21.4972 150.457 21.9374 150.091 22.3067C149.725 22.6745 149.285 22.9609 148.771 23.1644C148.257 23.3679 147.687 23.4704 147.058 23.4704H143.894V15.0967H147.058C147.687 15.0967 148.257 15.1977 148.771 15.4027C149.285 15.6062 149.725 15.8926 150.091 16.2604C150.457 16.6282 150.741 17.0699 150.943 17.5839C151.145 18.098 151.246 18.6648 151.246 19.2843V19.2828ZM149.856 19.2828C149.856 18.8019 149.791 18.3693 149.661 17.9864C149.532 17.602 149.346 17.2794 149.104 17.0156C148.861 16.7518 148.567 16.5498 148.223 16.4081C147.878 16.2664 147.491 16.1956 147.061 16.1956H145.264V22.37H147.061C147.491 22.37 147.878 22.3007 148.223 22.1605C148.569 22.0203 148.863 21.8183 149.104 21.553C149.346 21.2877 149.532 20.9636 149.661 20.5822C149.791 20.2008 149.856 19.7667 149.856 19.2828Z" fill="#3C3C3B"></path><path d="M157.967 22.3715L157.961 23.4704H152.739V15.0967H157.961V16.1956H154.104V18.719H157.186V19.7833H154.104V22.3715H157.965H157.967Z" fill="#3C3C3B"></path><path d="M168.148 21.6035C168.222 21.6035 168.285 21.6321 168.34 21.6909L168.881 22.2788C168.54 22.6903 168.121 23.0069 167.625 23.23C167.129 23.4531 166.535 23.5646 165.846 23.5646C165.234 23.5646 164.681 23.4591 164.187 23.2481C163.692 23.037 163.27 22.7431 162.922 22.3647C162.574 21.9864 162.305 21.5356 162.117 21.0125C161.928 20.4895 161.835 19.9136 161.835 19.285C161.835 18.6564 161.934 18.0806 162.135 17.556C162.334 17.0299 162.616 16.5792 162.978 16.2008C163.339 15.8225 163.775 15.53 164.28 15.3205C164.787 15.111 165.343 15.007 165.952 15.007C166.561 15.007 167.09 15.1049 167.554 15.3009C168.017 15.4969 168.419 15.7577 168.76 16.0833L168.312 16.7164C168.281 16.7586 168.245 16.7963 168.202 16.8264C168.16 16.8581 168.101 16.8732 168.027 16.8732C167.951 16.8732 167.862 16.837 167.762 16.7661C167.663 16.6938 167.538 16.6154 167.384 16.5279C167.23 16.4405 167.039 16.3606 166.808 16.2898C166.577 16.2174 166.289 16.1828 165.944 16.1828C165.545 16.1828 165.178 16.2521 164.845 16.3923C164.512 16.5325 164.226 16.736 163.985 17.0028C163.743 17.2711 163.556 17.5952 163.424 17.9796C163.29 18.364 163.223 18.7996 163.223 19.288C163.223 19.7765 163.293 20.2196 163.433 20.6055C163.573 20.9914 163.764 21.3171 164.009 21.5824C164.253 21.8477 164.539 22.0512 164.869 22.1898C165.2 22.33 165.554 22.3994 165.934 22.3994C166.166 22.3994 166.375 22.3873 166.559 22.3617C166.743 22.3361 166.913 22.2954 167.069 22.2396C167.224 22.1838 167.37 22.113 167.507 22.0271C167.645 21.9426 167.782 21.8371 167.917 21.7135C167.994 21.6442 168.073 21.608 168.15 21.608L168.148 21.6035Z" fill="#3C3C3B"></path><path d="M171.429 23.4704H170.062V15.0967H171.429V23.4704Z" fill="#3C3C3B"></path><path d="M178.644 22.3715L178.638 23.4704H173.417V15.0967H178.638V16.1956H174.782V18.719H177.863V19.7833H174.782V22.3715H178.643H178.644Z" fill="#3C3C3B"></path><path d="M187.046 15.0967V23.4704H186.354C186.25 23.4704 186.161 23.4523 186.087 23.4147C186.013 23.377 185.944 23.3167 185.878 23.2308L181.278 17.3232C181.291 17.4362 181.298 17.5478 181.304 17.6578C181.31 17.7678 181.313 17.8703 181.313 17.9638V23.4704H180.115V15.0967H180.825C180.884 15.0967 180.933 15.0997 180.974 15.1057C181.015 15.1118 181.052 15.1223 181.087 15.1374C181.122 15.1525 181.155 15.1766 181.185 15.2067C181.215 15.2369 181.25 15.2761 181.285 15.3228L185.89 21.2364C185.878 21.1158 185.869 20.9983 185.864 20.8822C185.858 20.7661 185.855 20.6576 185.855 20.5566V15.0967H187.047H187.046Z" fill="#3C3C3B"></path><path d="M194.855 21.6035C194.928 21.6035 194.992 21.6321 195.046 21.6909L195.587 22.2788C195.247 22.6903 194.827 23.0069 194.332 23.23C193.836 23.4531 193.242 23.5646 192.553 23.5646C191.941 23.5646 191.388 23.4591 190.893 23.2481C190.399 23.037 189.977 22.7431 189.628 22.3647C189.28 21.9864 189.012 21.5356 188.823 21.0125C188.635 20.4895 188.542 19.9136 188.542 19.285C188.542 18.6564 188.641 18.0806 188.841 17.556C189.04 17.0299 189.322 16.5792 189.684 16.2008C190.046 15.8225 190.482 15.53 190.987 15.3205C191.493 15.111 192.049 15.007 192.658 15.007C193.267 15.007 193.796 15.1049 194.261 15.3009C194.723 15.4969 195.126 15.7577 195.467 16.0833L195.019 16.7164C194.987 16.7586 194.951 16.7963 194.909 16.8264C194.867 16.8581 194.808 16.8732 194.734 16.8732C194.657 16.8732 194.568 16.837 194.469 16.7661C194.369 16.6938 194.244 16.6154 194.09 16.5279C193.937 16.4405 193.745 16.3606 193.515 16.2898C193.284 16.2174 192.996 16.1828 192.651 16.1828C192.251 16.1828 191.885 16.2521 191.552 16.3923C191.219 16.5325 190.932 16.736 190.691 17.0028C190.45 17.2711 190.263 17.5952 190.13 17.9796C189.996 18.364 189.93 18.7996 189.93 19.288C189.93 19.7765 189.999 20.2196 190.139 20.6055C190.28 20.9914 190.471 21.3171 190.715 21.5824C190.959 21.8477 191.246 22.0512 191.576 22.1898C191.906 22.33 192.26 22.3994 192.64 22.3994C192.872 22.3994 193.082 22.3873 193.266 22.3617C193.45 22.3361 193.62 22.2954 193.775 22.2396C193.931 22.1838 194.077 22.113 194.214 22.0271C194.351 21.9426 194.488 21.8371 194.624 21.7135C194.701 21.6442 194.779 21.608 194.856 21.608L194.855 21.6035Z" fill="#3C3C3B"></path><path d="M198.134 23.4704H196.767V15.0967H198.134V23.4704Z" fill="#3C3C3B"></path><path d="M207.13 23.4706H206.078C205.957 23.4706 205.861 23.4405 205.787 23.3802C205.713 23.3199 205.657 23.246 205.618 23.1571L204.92 21.3075H201.316L200.618 23.1571C200.586 23.234 200.532 23.3063 200.455 23.3727C200.378 23.439 200.28 23.4721 200.164 23.4721H199.112L202.433 15.0984H203.81L207.131 23.4721L207.13 23.4706ZM204.554 20.3307L203.402 17.2721C203.308 17.0354 203.214 16.7355 203.117 16.3707C203.075 16.5531 203.028 16.7204 202.977 16.8741C202.927 17.0279 202.88 17.1621 202.837 17.2781L201.685 20.3307H204.552H204.554Z" fill="#3C3C3B"></path><path d="M212.485 16.527C212.442 16.5964 212.397 16.6476 212.35 16.6808C212.304 16.7139 212.245 16.7305 212.176 16.7305C212.102 16.7305 212.02 16.6989 211.928 16.6371C211.838 16.5753 211.725 16.5059 211.591 16.4306C211.456 16.3552 211.298 16.2843 211.117 16.221C210.935 16.1562 210.718 16.1245 210.466 16.1245C210.234 16.1245 210.029 16.1532 209.853 16.212C209.676 16.2708 209.528 16.3522 209.408 16.4562C209.287 16.5602 209.197 16.6838 209.138 16.8255C209.078 16.9672 209.048 17.1209 209.048 17.2883C209.048 17.5008 209.103 17.6787 209.216 17.8204C209.329 17.9621 209.477 18.0827 209.661 18.1837C209.845 18.2847 210.056 18.3736 210.293 18.449C210.529 18.5244 210.771 18.6058 211.016 18.6902C211.262 18.7761 211.503 18.8726 211.74 18.9811C211.977 19.0897 212.186 19.2268 212.37 19.3942C212.554 19.5615 212.703 19.765 212.815 20.0047C212.928 20.2459 212.983 20.5383 212.983 20.8835C212.983 21.2558 212.92 21.604 212.792 21.9297C212.664 22.2553 212.479 22.5402 212.237 22.7813C211.995 23.024 211.696 23.214 211.342 23.3542C210.988 23.4944 210.582 23.5637 210.13 23.5637C209.862 23.5637 209.601 23.5381 209.348 23.4853C209.094 23.4326 208.852 23.3602 208.621 23.2637C208.39 23.1688 208.175 23.0527 207.973 22.9185C207.771 22.7829 207.591 22.6321 207.432 22.4648L207.827 21.8136C207.861 21.7593 207.905 21.7171 207.961 21.6854C208.015 21.6538 208.075 21.6387 208.142 21.6387C208.231 21.6387 208.33 21.6809 208.439 21.7638C208.547 21.8467 208.678 21.9387 208.831 22.0367C208.984 22.1362 209.168 22.2266 209.385 22.3095C209.602 22.3924 209.862 22.4346 210.165 22.4346C210.658 22.4346 211.037 22.3155 211.307 22.0744C211.577 21.8347 211.711 21.503 211.711 21.0795C211.711 20.8428 211.655 20.6498 211.542 20.5006C211.429 20.3514 211.282 20.2263 211.098 20.1253C210.914 20.0243 210.703 19.9383 210.468 19.869C210.231 19.7997 209.991 19.7243 209.746 19.6444C209.501 19.5645 209.262 19.4725 209.025 19.3655C208.788 19.2585 208.579 19.1198 208.395 18.9464C208.211 18.7746 208.062 18.5605 207.95 18.3073C207.837 18.054 207.781 17.736 207.781 17.3561C207.781 17.0531 207.84 16.7607 207.959 16.4773C208.077 16.1939 208.25 15.9437 208.476 15.7236C208.704 15.505 208.983 15.3286 209.316 15.1975C209.649 15.0663 210.029 15 210.456 15C210.936 15 211.377 15.0754 211.779 15.2276C212.18 15.3784 212.527 15.5939 212.816 15.8728L212.485 16.524V16.527Z" fill="#3C3C3B"></path><path d="M86.3193 32.9621V36.2633H90.7662V38.6903H86.3193V42.0594H92.1259V44.5843H83.0181V30.4371H92.1259V32.9621H86.3193Z" fill="#2E3278"></path><path d="M103.39 40.9249C103.467 40.9249 103.545 40.94 103.624 40.9686C103.701 40.9973 103.776 41.0485 103.847 41.1194L105.148 42.4881C104.578 43.2328 103.865 43.7936 103.006 44.1719C102.148 44.5503 101.134 44.7402 99.9623 44.7402C98.8875 44.7402 97.9243 44.5578 97.0741 44.1915C96.2224 43.8252 95.5018 43.3202 94.9094 42.6766C94.317 42.0329 93.8618 41.2686 93.5452 40.3853C93.2286 39.5019 93.0688 38.5417 93.0688 37.5061C93.0688 36.4705 93.2407 35.4816 93.5829 34.5982C93.9266 33.7149 94.409 32.9521 95.03 32.3115C95.6511 31.6708 96.3957 31.1719 97.2625 30.8161C98.1308 30.4604 99.085 30.2825 100.127 30.2825C100.657 30.2825 101.158 30.3292 101.627 30.4227C102.095 30.5161 102.534 30.6458 102.943 30.8116C103.351 30.9774 103.726 31.1764 104.069 31.4085C104.412 31.6422 104.715 31.8939 104.981 32.1668L103.874 33.6531C103.803 33.7435 103.719 33.8264 103.622 33.9003C103.524 33.9757 103.389 34.0118 103.214 34.0118C103.098 34.0118 102.986 33.9862 102.884 33.935C102.78 33.8837 102.67 33.8204 102.554 33.745C102.438 33.6712 102.309 33.5898 102.171 33.5023C102.032 33.4149 101.866 33.335 101.675 33.2596C101.483 33.1858 101.26 33.1225 101.005 33.0697C100.749 33.0185 100.451 32.9913 100.107 32.9913C99.5628 32.9913 99.0669 33.0923 98.6162 33.2928C98.1655 33.4933 97.7781 33.7872 97.4509 34.1716C97.1238 34.556 96.8721 35.0294 96.6927 35.5886C96.5148 36.1479 96.4259 36.787 96.4259 37.5061C96.4259 38.2251 96.5239 38.8748 96.7213 39.4386C96.9188 40.0024 97.1871 40.4757 97.5278 40.8616C97.867 41.246 98.2634 41.5399 98.7172 41.7404C99.1709 41.9409 99.6563 42.0419 100.173 42.0419C100.472 42.0419 100.743 42.0269 100.989 41.9982C101.235 41.9696 101.464 41.9213 101.678 41.852C101.892 41.7842 102.092 41.6937 102.279 41.5806C102.468 41.4676 102.658 41.3229 102.852 41.148C102.929 41.0832 103.013 41.0304 103.105 40.9882C103.196 40.946 103.289 40.9249 103.387 40.9249H103.39Z" fill="#2E3278"></path><path d="M120.138 37.5078C120.138 38.5313 119.962 39.4825 119.609 40.3628C119.256 41.2432 118.759 42.009 118.118 42.6587C117.477 43.3099 116.706 43.8194 115.803 44.1887C114.9 44.558 113.897 44.7419 112.797 44.7419C111.696 44.7419 110.692 44.558 109.786 44.1887C108.881 43.8194 108.104 43.3099 107.461 42.6587C106.817 42.009 106.318 41.2432 105.965 40.3628C105.612 39.4825 105.436 38.5313 105.436 37.5078C105.436 36.4842 105.612 35.533 105.965 34.6527C106.318 33.7724 106.817 33.0081 107.461 32.3614C108.104 31.7147 108.879 31.2067 109.786 30.8374C110.692 30.4681 111.696 30.2842 112.797 30.2842C113.897 30.2842 114.9 30.4711 115.803 30.8419C116.706 31.2143 117.477 31.7238 118.118 32.372C118.759 33.0202 119.256 33.7829 119.609 34.6633C119.962 35.5436 120.138 36.4918 120.138 37.5078ZM116.778 37.5078C116.778 36.8083 116.687 36.1797 116.507 35.619C116.326 35.0582 116.065 34.5849 115.724 34.196C115.384 33.807 114.969 33.5101 114.476 33.3021C113.983 33.0955 113.424 32.9915 112.795 32.9915C112.167 32.9915 111.597 33.0955 111.101 33.3021C110.605 33.5086 110.187 33.807 109.848 34.196C109.508 34.5849 109.248 35.0582 109.066 35.619C108.885 36.1782 108.795 36.8083 108.795 37.5078C108.795 38.2072 108.885 38.8464 109.066 39.4056C109.247 39.9649 109.508 40.4397 109.848 40.8286C110.187 41.2161 110.605 41.513 111.101 41.7165C111.597 41.92 112.161 42.0225 112.795 42.0225C113.43 42.0225 113.983 41.92 114.476 41.7165C114.968 41.513 115.384 41.2161 115.724 40.8286C116.065 40.4397 116.324 39.9664 116.507 39.4056C116.687 38.8464 116.778 38.2133 116.778 37.5078Z" fill="#2E3278"></path><path d="M134.421 30.4386V44.5858H132.712C132.46 44.5858 132.247 44.5451 132.076 44.4652C131.904 44.3838 131.733 44.2436 131.566 44.0431L124.896 35.6061C124.921 35.8578 124.939 36.1035 124.948 36.3387C124.958 36.5753 124.964 36.7969 124.964 37.0034V44.5873H122.071V30.4401H123.798C123.94 30.4401 124.061 30.4461 124.157 30.4597C124.254 30.4718 124.341 30.4974 124.419 30.5321C124.496 30.5682 124.572 30.618 124.642 30.6828C124.713 30.7476 124.795 30.835 124.885 30.9451L131.614 39.441C131.581 39.1696 131.56 38.9058 131.546 38.6496C131.533 38.3933 131.527 38.1521 131.527 37.926V30.4401H134.421V30.4386Z" fill="#2E3278"></path><path d="M151.044 37.5075C151.044 38.531 150.868 39.4822 150.515 40.3625C150.162 41.2429 149.665 42.0086 149.024 42.6583C148.384 43.3095 147.612 43.819 146.709 44.1884C145.806 44.5577 144.803 44.7416 143.703 44.7416C142.603 44.7416 141.599 44.5577 140.693 44.1884C139.787 43.819 139.01 43.3095 138.367 42.6583C137.723 42.0086 137.224 41.2429 136.871 40.3625C136.519 39.4822 136.342 38.531 136.342 37.5075C136.342 36.4839 136.519 35.5327 136.871 34.6524C137.224 33.772 137.723 33.0078 138.367 32.3611C139.01 31.7144 139.785 31.2064 140.693 30.8371C141.599 30.4678 142.603 30.2839 143.703 30.2839C144.803 30.2839 145.806 30.4708 146.709 30.8416C147.612 31.2139 148.384 31.7235 149.024 32.3717C149.665 33.0198 150.162 33.7826 150.515 34.6629C150.868 35.5433 151.044 36.4914 151.044 37.5075ZM147.684 37.5075C147.684 36.808 147.594 36.1794 147.413 35.6186C147.232 35.0579 146.971 34.5846 146.63 34.1956C146.29 33.8067 145.875 33.5098 145.382 33.3017C144.889 33.0952 144.33 32.9912 143.702 32.9912C143.073 32.9912 142.503 33.0952 142.007 33.3017C141.511 33.5083 141.094 33.8067 140.755 34.1956C140.414 34.5846 140.155 35.0579 139.972 35.6186C139.791 36.1779 139.701 36.808 139.701 37.5075C139.701 38.2069 139.791 38.846 139.972 39.4053C140.153 39.9646 140.414 40.4394 140.755 40.8283C141.094 41.2157 141.511 41.5127 142.007 41.7162C142.503 41.9197 143.067 42.0222 143.702 42.0222C144.336 42.0222 144.889 41.9197 145.382 41.7162C145.874 41.5127 146.29 41.2157 146.63 40.8283C146.971 40.4394 147.23 39.9661 147.413 39.4053C147.594 38.846 147.684 38.2129 147.684 37.5075ZM148.18 26.458L145.043 29.2256C144.966 29.2965 144.891 29.3523 144.82 29.39C144.748 29.4291 144.674 29.4578 144.597 29.4774C144.52 29.497 144.437 29.5106 144.35 29.5166C144.262 29.5226 144.163 29.5256 144.053 29.5256H141.858L143.693 26.9042C143.771 26.8002 143.846 26.7173 143.922 26.657C143.995 26.5952 144.077 26.55 144.164 26.5213C144.252 26.4927 144.353 26.4746 144.466 26.4686C144.579 26.4625 144.71 26.4595 144.859 26.4595H148.18V26.458Z" fill="#2E3278"></path><path d="M168.882 30.4386V44.5858H165.988V36.4487C165.988 36.2603 165.993 36.0568 166.003 35.8367C166.012 35.6166 166.03 35.3935 166.056 35.1674L162.298 42.4392C162.182 42.6653 162.025 42.8372 161.828 42.9533C161.63 43.0693 161.406 43.1281 161.152 43.1281H160.706C160.453 43.1281 160.228 43.0693 160.031 42.9533C159.833 42.8372 159.677 42.6653 159.56 42.4392L155.802 35.1478C155.822 35.3799 155.839 35.6091 155.851 35.8322C155.864 36.0553 155.87 36.2603 155.87 36.4487V44.5858H152.978V30.4386H155.483C155.625 30.4386 155.75 30.4416 155.857 30.4476C155.964 30.4537 156.059 30.4733 156.143 30.5064C156.228 30.5396 156.303 30.5893 156.371 30.6572C156.439 30.725 156.505 30.82 156.57 30.9436L160.21 38.1189C160.34 38.3646 160.463 38.6209 160.584 38.8862C160.703 39.1515 160.819 39.4229 160.929 39.7017C161.039 39.4168 161.154 39.138 161.274 38.8666C161.394 38.5953 161.522 38.336 161.657 38.0903L165.289 30.9436C165.354 30.8215 165.42 30.725 165.488 30.6572C165.556 30.5893 165.632 30.5396 165.715 30.5064C165.8 30.4733 165.895 30.4552 166.002 30.4476C166.109 30.4416 166.232 30.4386 166.376 30.4386H168.881H168.882Z" fill="#2E3278"></path><path d="M174.92 44.5858H171.619V30.4386H174.92V44.5858Z" fill="#2E3278"></path><path d="M187.194 40.9249C187.271 40.9249 187.349 40.94 187.428 40.9686C187.504 40.9973 187.58 41.0485 187.651 41.1194L188.952 42.4881C188.382 43.2328 187.669 43.7936 186.81 44.1719C185.952 44.5503 184.937 44.7402 183.766 44.7402C182.691 44.7402 181.728 44.5578 180.878 44.1915C180.026 43.8252 179.306 43.3202 178.713 42.6766C178.121 42.0329 177.665 41.2686 177.349 40.3853C177.032 39.5019 176.873 38.5417 176.873 37.5061C176.873 36.4705 177.044 35.4816 177.387 34.5982C177.73 33.7149 178.213 32.9521 178.834 32.3115C179.455 31.6708 180.199 31.1719 181.066 30.8161C181.935 30.4604 182.889 30.2825 183.93 30.2825C184.461 30.2825 184.961 30.3292 185.43 30.4227C185.899 30.5161 186.338 30.6458 186.746 30.8116C187.155 30.9774 187.53 31.1764 187.872 31.4085C188.216 31.6422 188.519 31.8939 188.784 32.1668L187.678 33.6531C187.607 33.7435 187.523 33.8264 187.426 33.9003C187.328 33.9757 187.192 34.0118 187.018 34.0118C186.901 34.0118 186.79 33.9862 186.687 33.935C186.583 33.8837 186.473 33.8204 186.357 33.745C186.241 33.6712 186.113 33.5898 185.974 33.5023C185.836 33.4149 185.67 33.335 185.478 33.2596C185.287 33.1858 185.064 33.1225 184.809 33.0697C184.553 33.0185 184.254 32.9913 183.911 32.9913C183.367 32.9913 182.871 33.0923 182.42 33.2928C181.969 33.4933 181.582 33.7872 181.255 34.1716C180.928 34.556 180.676 35.0294 180.496 35.5886C180.319 36.1479 180.23 36.787 180.23 37.5061C180.23 38.2251 180.328 38.8748 180.525 39.4386C180.723 40.0024 180.991 40.4757 181.332 40.8616C181.671 41.246 182.067 41.5399 182.521 41.7404C182.975 41.9409 183.46 42.0419 183.977 42.0419C184.276 42.0419 184.547 42.0269 184.793 41.9982C185.038 41.9696 185.267 41.9213 185.481 41.852C185.696 41.7842 185.896 41.6937 186.083 41.5806C186.271 41.4676 186.461 41.3229 186.656 41.148C186.733 41.0832 186.817 41.0304 186.909 40.9882C186.999 40.946 187.093 40.9249 187.191 40.9249H187.194Z" fill="#2E3278"></path><path d="M203.076 44.5858H200.532C200.247 44.5858 200.018 44.5195 199.843 44.3868C199.668 44.2542 199.535 44.0838 199.445 43.8773L198.61 41.4112H193.23L192.395 43.8773C192.322 44.0582 192.196 44.221 192.012 44.3672C191.826 44.5134 191.599 44.5858 191.327 44.5858H188.765L194.241 30.4386H197.601L203.078 44.5858H203.076ZM197.862 39.1772L196.552 35.3031C196.454 35.0574 196.352 34.7679 196.241 34.4333C196.131 34.1001 196.021 33.7399 195.911 33.351C195.815 33.7459 195.711 34.1122 195.601 34.4484C195.491 34.7845 195.387 35.0769 195.29 35.3227L193.989 39.1772H197.863H197.862Z" fill="#2E3278"></path><path d="M212.011 33.3126C211.915 33.4679 211.812 33.5839 211.705 33.6623C211.598 33.7392 211.461 33.7784 211.292 33.7784C211.143 33.7784 210.983 33.7317 210.811 33.6382C210.639 33.5447 210.445 33.4392 210.228 33.3232C210.011 33.2071 209.764 33.1016 209.485 33.0081C209.206 32.9146 208.889 32.8679 208.534 32.8679C207.918 32.8679 207.46 32.9991 207.159 33.2614C206.857 33.5236 206.708 33.8779 206.708 34.3241C206.708 34.609 206.798 34.8457 206.979 35.0326C207.16 35.221 207.398 35.3823 207.692 35.518C207.988 35.6536 208.324 35.7788 208.702 35.8918C209.081 36.0049 209.468 36.1315 209.863 36.2702C210.258 36.4089 210.644 36.5732 211.024 36.7601C211.402 36.9485 211.738 37.1867 212.034 37.4791C212.328 37.7701 212.566 38.1243 212.747 38.5419C212.928 38.9594 213.018 39.4629 213.018 40.0523C213.018 40.7065 212.905 41.3186 212.677 41.8884C212.451 42.4582 212.123 42.9556 211.692 43.3792C211.26 43.8028 210.73 44.1359 210.1 44.3786C209.468 44.6213 208.752 44.7419 207.949 44.7419C207.508 44.7419 207.061 44.6967 206.604 44.6063C206.147 44.5158 205.706 44.3877 205.279 44.2234C204.852 44.0591 204.45 43.8631 204.075 43.6355C203.699 43.4094 203.372 43.1561 203.095 42.8787L204.066 41.3442C204.144 41.2341 204.245 41.1422 204.372 41.0668C204.498 40.993 204.635 40.9553 204.785 40.9553C204.979 40.9553 205.175 41.0171 205.372 41.1392C205.57 41.2628 205.793 41.3985 206.042 41.5477C206.29 41.6969 206.577 41.8326 206.901 41.9562C207.225 42.0798 207.606 42.1401 208.047 42.1401C208.642 42.1401 209.105 42.009 209.435 41.7467C209.765 41.4844 209.931 41.0683 209.931 40.4985C209.931 40.1684 209.84 39.9001 209.66 39.692C209.479 39.4855 209.241 39.3137 208.947 39.178C208.651 39.0423 208.316 38.9217 207.941 38.8192C207.566 38.7152 207.18 38.6007 206.786 38.474C206.391 38.3474 206.006 38.1921 205.63 38.0082C205.255 37.8243 204.92 37.5816 204.626 37.2802C204.331 36.9787 204.094 36.6033 203.912 36.1541C203.731 35.7034 203.64 35.1487 203.64 34.4884C203.64 33.9578 203.747 33.4392 203.96 32.9342C204.174 32.4293 204.488 31.98 204.902 31.5851C205.317 31.1901 205.825 30.8751 206.426 30.6384C207.028 30.4018 207.718 30.2842 208.494 30.2842C208.928 30.2842 209.351 30.3188 209.761 30.3867C210.172 30.4545 210.563 30.5555 210.93 30.6882C211.3 30.8208 211.643 30.9791 211.964 31.1645C212.284 31.3484 212.572 31.558 212.824 31.7901L212.008 33.3141L212.011 33.3126Z" fill="#2E3278"></path><path d="M133.273 56.2403C133.536 56.2403 133.769 56.1965 133.974 56.1106C134.179 56.0247 134.354 55.8996 134.496 55.7383C134.638 55.577 134.746 55.3795 134.822 55.1474C134.897 54.9152 134.935 54.6499 134.935 54.3545V49.377H136.884V54.3545C136.884 54.87 136.801 55.3433 136.633 55.773C136.466 56.2041 136.226 56.5749 135.916 56.8854C135.604 57.1975 135.225 57.4387 134.779 57.612C134.333 57.7854 133.831 57.8713 133.273 57.8713C132.716 57.8713 132.208 57.7854 131.763 57.612C131.317 57.4387 130.938 57.196 130.626 56.8854C130.314 56.5749 130.076 56.2026 129.912 55.773C129.746 55.3433 129.663 54.87 129.663 54.3545V49.377H131.612V54.3484C131.612 54.6454 131.65 54.9092 131.725 55.1414C131.801 55.3735 131.909 55.5725 132.051 55.7353C132.193 55.8981 132.367 56.0232 132.572 56.1106C132.777 56.1965 133.011 56.2403 133.273 56.2403Z" fill="#AD8949"></path><path d="M147.127 49.3772V57.7812H146.111C145.961 57.7812 145.835 57.757 145.732 57.7088C145.63 57.6606 145.529 57.5776 145.429 57.4571L141.466 52.4449C141.481 52.5956 141.492 52.7403 141.498 52.8805C141.504 53.0207 141.507 53.1518 141.507 53.2754V57.7796H139.789V49.3757H140.815C140.9 49.3757 140.97 49.3802 141.029 49.3878C141.086 49.3953 141.139 49.4104 141.184 49.4315C141.231 49.4526 141.275 49.4828 141.317 49.5204C141.359 49.5581 141.408 49.6109 141.462 49.6757L145.46 54.7226C145.44 54.5613 145.426 54.4045 145.419 54.2523C145.411 54.1 145.407 53.9568 145.407 53.8226V49.3757H147.125L147.127 49.3772Z" fill="#AD8949"></path><path d="M157.474 49.3772V57.7812H156.458C156.309 57.7812 156.182 57.757 156.08 57.7088C155.977 57.6606 155.876 57.5776 155.777 57.4571L151.814 52.4449C151.829 52.5956 151.839 52.7403 151.845 52.8805C151.851 53.0207 151.854 53.1518 151.854 53.2754V57.7796H150.136V49.3757H151.162C151.247 49.3757 151.318 49.3802 151.376 49.3878C151.434 49.3953 151.486 49.4104 151.532 49.4315C151.578 49.4526 151.622 49.4828 151.664 49.5204C151.706 49.5581 151.755 49.6109 151.809 49.6757L155.807 54.7226C155.787 54.5613 155.774 54.4045 155.766 54.2523C155.758 54.1 155.754 53.9568 155.754 53.8226V49.3757H157.472L157.474 49.3772Z" fill="#AD8949"></path><path d="M162.445 50.8772V52.8383H165.086V54.2809H162.445V56.2828H165.894V57.7827H160.483V49.3788H165.894V50.8787H162.445V50.8772Z" fill="#AD8949"></path><path d="M125.509 52.7949H83.04V54.337H125.509V52.7949Z" fill="#3C3C3B"></path><path d="M212.983 52.7949H170.514V54.337H212.983V52.7949Z" fill="#3C3C3B"></path><path d="M49.4966 54.5777L55.9372 61.0184C50.0368 65.8016 42.5212 68.6662 34.3331 68.6662C15.3713 68.6662 0 53.2994 0 34.3331C0 15.3669 15.3713 0 34.3331 0C42.6491 0 50.268 2.95465 56.2073 7.87574L49.7767 14.3064C45.5048 11.006 40.1491 9.04515 34.3342 9.04515C20.3647 9.04515 9.04182 20.368 9.04182 34.3331C9.04182 48.2982 20.3647 59.6255 34.3342 59.6255C40.0212 59.6255 45.2691 57.7458 49.4977 54.5777H49.4966Z" fill="#2E3278"></path><path d="M40.8627 45.9427L47.0099 52.0899C43.435 54.6466 39.0586 56.1484 34.3332 56.1484C22.2855 56.1484 12.5156 46.3841 12.5156 34.3309C12.5156 22.2777 22.2855 12.5189 34.3332 12.5189C39.1875 12.5189 43.6673 14.1052 47.2945 16.7853L41.1762 22.9036C39.1731 21.7052 36.8332 21.0138 34.3332 21.0138C28.376 21.0138 23.3327 24.9256 21.6375 30.3191H33.7607V38.8385H21.8031C23.645 43.9763 28.5606 47.6513 34.3332 47.6513C36.7053 47.6513 38.9363 47.031 40.8638 45.9416L40.8627 45.9427Z" fill="#2E3278"></path><path d="M50.4258 48.1071L64.1464 55.6494L52.5534 45.1113L67.3434 50.2369L54.1219 41.8243L69.611 44.2054L55.1335 38.1571L70.7749 37.9403L55.5437 34.5044L70.8327 31.5297L55.2513 30.7482L69.7978 25.2558L54.2319 27.2211L67.6291 19.1086L52.7924 24.0441L64.5455 13.6573L50.6737 20.9327L60.5281 8.75952L60.1335 9.05743C55.906 13.1826 48.0925 20.8049 43.7662 25.0257C46.1128 27.4268 47.5601 30.7093 47.5601 34.3321C47.5601 37.9548 46.0461 41.3874 43.605 43.8018L59.9045 60.2181L60.1257 60.3882L50.4236 48.106L50.4258 48.1071Z" fill="#AD8949"></path></svg>